<svg width="44" height="64" viewBox="0 0 44 64" fill="none" xmlns="http://www.w3.org/2000/svg">
<g clip-path="url(#clip0_8_536)">
<path d="M22.0259 32.0002C22.0259 29.1712 23.1497 26.4581 25.1501 24.4577C27.1505 22.4573 29.8636 21.3335 32.6926 21.3335C35.5216 21.3335 38.2347 22.4573 40.2351 24.4577C42.2355 26.4581 43.3593 29.1712 43.3593 32.0002C43.3593 34.8291 42.2355 37.5422 40.2351 39.5426C38.2347 41.543 35.5216 42.6668 32.6926 42.6668C29.8636 42.6668 27.1505 41.543 25.1501 39.5426C23.1497 37.5422 22.0259 34.8291 22.0259 32.0002Z" fill="#1ABCFE"/>
<path d="M0.692596 53.3332C0.692596 50.5042 1.8164 47.7911 3.81679 45.7907C5.81718 43.7903 8.53029 42.6665 11.3593 42.6665H22.0259V53.3332C22.0259 56.1621 20.9021 58.8753 18.9017 60.8756C16.9013 62.876 14.1882 63.9998 11.3593 63.9998C8.53029 63.9998 5.81718 62.876 3.81679 60.8756C1.8164 58.8753 0.692596 56.1621 0.692596 53.3332Z" fill="#0ACF83"/>
<path d="M22.0259 0V21.3333H32.6926C35.5216 21.3333 38.2347 20.2095 40.2351 18.2091C42.2355 16.2087 43.3593 13.4956 43.3593 10.6667C43.3593 7.83769 42.2355 5.12458 40.2351 3.12419C38.2347 1.12381 35.5216 0 32.6926 0L22.0259 0Z" fill="#FF7262"/>
<path d="M0.692596 10.6667C0.692596 13.4956 1.8164 16.2087 3.81679 18.2091C5.81718 20.2095 8.53029 21.3333 11.3593 21.3333H22.0259V0H11.3593C8.53029 0 5.81718 1.12381 3.81679 3.12419C1.8164 5.12458 0.692596 7.83769 0.692596 10.6667Z" fill="#F24E1E"/>
<path d="M0.692596 32.0002C0.692596 34.8291 1.8164 37.5422 3.81679 39.5426C5.81718 41.543 8.53029 42.6668 11.3593 42.6668H22.0259V21.3335H11.3593C8.53029 21.3335 5.81718 22.4573 3.81679 24.4577C1.8164 26.4581 0.692596 29.1712 0.692596 32.0002Z" fill="#A259FF"/>
</g>
<defs>
<clipPath id="clip0_8_536">
<rect width="42.6667" height="64" fill="white" transform="translate(0.692596)"/>
</clipPath>
</defs>
</svg>
