<svg width="67" height="64" viewBox="0 0 67 64" fill="none" xmlns="http://www.w3.org/2000/svg">
<path fill-rule="evenodd" clip-rule="evenodd" d="M38.3491 1.06152C37.8973 1.06152 37.4778 1.15861 37.0905 1.28806C37.9134 1.83821 38.3652 2.56636 38.5911 3.39158C38.6073 3.50485 38.6395 3.58576 38.6557 3.69902C38.6718 3.79611 38.6879 3.89319 38.6879 3.99028C38.7525 5.4142 38.3168 5.59219 38.0102 6.4336C37.5423 7.51773 37.6714 8.68276 38.2361 9.62126C38.2845 9.73452 38.3491 9.86397 38.4298 9.97724C37.8166 5.88345 41.2211 5.26858 41.8504 3.99028C41.8988 2.87379 40.9791 2.12947 40.253 1.61168C39.5592 1.19097 38.9299 1.06152 38.3491 1.06152ZM43.48 1.98384C43.4154 2.356 43.4639 2.25891 43.4478 2.45309C43.4316 2.58253 43.4316 2.74435 43.4155 2.87379C43.3833 3.00324 43.351 3.13269 43.3026 3.26214C43.2703 3.39158 43.2219 3.52103 43.1735 3.65048C43.1089 3.77993 43.0606 3.89319 42.996 4.02264C42.9476 4.08739 42.9153 4.15209 42.8669 4.21681C42.8347 4.26536 42.8024 4.3139 42.7701 4.36244C42.6894 4.47571 42.6088 4.58898 42.5281 4.68606C42.4313 4.78315 42.3506 4.89641 42.2377 4.97732V4.99352C42.1409 5.07443 42.044 5.17151 41.9311 5.25242C41.5923 5.51131 41.205 5.70548 40.85 5.9482C40.7371 6.0291 40.6242 6.09383 40.5274 6.19092C40.4144 6.27182 40.3176 6.35272 40.2208 6.44981C40.1078 6.54689 40.0272 6.64398 39.9304 6.75725C39.8497 6.85434 39.7529 6.9676 39.6883 7.08087C39.6077 7.19413 39.527 7.3074 39.4624 7.42067C39.3979 7.55011 39.3495 7.66338 39.285 7.79283C39.2365 7.92227 39.1881 8.03554 39.1559 8.16499C39.1075 8.31062 39.0752 8.44007 39.0429 8.56952C39.0268 8.63427 39.0268 8.71514 39.0107 8.77987C38.9945 8.84462 38.9945 8.90931 38.9784 8.97404C38.9784 9.10349 38.9623 9.24912 38.9623 9.37856C38.9623 9.47565 38.9623 9.57273 38.9784 9.66982C38.9784 9.79927 38.9946 9.92871 39.0268 10.0743C39.043 10.2038 39.0752 10.3332 39.1075 10.4627C39.1559 10.5921 39.1882 10.7216 39.2366 10.851C39.2688 10.9319 39.3173 11.0128 39.3495 11.0776L35.6385 9.63746C35.0092 9.45947 34.3961 9.29766 33.7668 9.15203C33.428 9.07113 33.0892 8.99022 32.7503 8.90932C31.7822 8.71514 30.798 8.56952 29.8137 8.47243C29.7815 8.47243 29.7653 8.45623 29.7331 8.45623C28.765 8.35915 27.813 8.3106 26.8449 8.3106C26.135 8.3106 25.425 8.34294 24.7312 8.39151C23.747 8.45626 22.7627 8.58568 21.7785 8.74748C21.5365 8.77982 21.2944 8.8284 21.0524 8.87694C20.5522 8.97402 20.0682 9.08729 19.6003 9.20056C19.3582 9.26531 19.1162 9.33 18.8742 9.39472C18.6322 9.49181 18.4063 9.60508 18.1804 9.70217C18.0029 9.78307 17.8254 9.86397 17.6479 9.94488C17.6157 9.96108 17.5834 9.96108 17.5672 9.97722C17.4059 10.0581 17.2607 10.1228 17.1155 10.2038C17.0671 10.22 17.0348 10.2361 17.0025 10.2523C16.825 10.3332 16.6476 10.4303 16.5023 10.5112C16.3894 10.5597 16.2764 10.6245 16.1796 10.673C16.1312 10.7053 16.0667 10.7378 16.0344 10.7539C15.8892 10.8348 15.744 10.9157 15.6149 10.9966C15.4697 11.0775 15.3406 11.1584 15.2277 11.2393C15.1147 11.3202 15.0018 11.385 14.905 11.4659C14.8888 11.4821 14.8727 11.4821 14.8566 11.4982C14.7597 11.563 14.6468 11.6438 14.55 11.7247C14.55 11.7247 14.5338 11.7409 14.5177 11.7571C14.4371 11.8218 14.3564 11.8865 14.2757 11.9512C14.2435 11.9674 14.2112 11.9998 14.1789 12.016C14.0982 12.0807 14.0176 12.1616 13.9369 12.2263C13.9207 12.2587 13.8885 12.2749 13.8723 12.2911C13.7755 12.3882 13.6787 12.4691 13.5819 12.5662C13.5657 12.5662 13.5657 12.5824 13.5496 12.5985C13.4528 12.6794 13.356 12.7765 13.2592 12.8736C13.2431 12.8898 13.2431 12.9059 13.227 12.9059C13.1463 12.9868 13.0656 13.0677 12.9849 13.1648C12.9527 13.1972 12.9043 13.2296 12.872 13.2619C12.7913 13.359 12.6945 13.4561 12.5977 13.5532C12.5815 13.5855 12.5493 13.6017 12.5331 13.6341C12.4041 13.7635 12.2911 13.893 12.162 14.0224C12.1459 14.0386 12.1298 14.0547 12.1136 14.071C11.8555 14.346 11.5812 14.6211 11.2907 14.8638C11.0003 15.1227 10.6937 15.3654 10.3872 15.5758C10.0645 15.8023 9.75792 15.9965 9.41908 16.1907C9.09638 16.3686 8.75754 16.5305 8.40257 16.6761C8.06373 16.8217 7.70877 16.9512 7.3538 17.0644C6.67612 17.2101 5.98231 17.4851 5.38532 17.5337C5.25624 17.5337 5.11102 17.566 4.98194 17.5822C4.83673 17.6146 4.70765 17.647 4.57857 17.6793C4.44949 17.7278 4.32041 17.7764 4.19133 17.8249C4.06225 17.8735 3.93317 17.9382 3.80409 18.0029C3.69114 18.0838 3.56206 18.1486 3.44911 18.2295C3.33617 18.3104 3.22322 18.4074 3.12641 18.5045C3.01347 18.5854 2.90052 18.6987 2.80371 18.7958C2.7069 18.9091 2.61009 19.0061 2.52942 19.1194C2.44874 19.2489 2.35193 19.3621 2.28739 19.4916C2.20672 19.6048 2.12604 19.7343 2.0615 19.8637C1.99694 20.0094 1.93242 20.1388 1.88402 20.2844C1.83561 20.4139 1.78721 20.5595 1.7388 20.7051C1.70656 20.8346 1.67423 20.964 1.65813 21.0935C1.65813 21.1097 1.64197 21.1258 1.64197 21.142C1.60972 21.2877 1.60972 21.4818 1.59356 21.5789C1.5774 21.6922 1.56132 21.7893 1.56132 21.9025C1.56132 21.9673 1.56132 22.0482 1.57748 22.1129C1.59364 22.2262 1.60972 22.3232 1.64204 22.4203C1.67429 22.5174 1.70661 22.6145 1.75498 22.7116V22.7278C1.80339 22.8249 1.86793 22.922 1.93247 23.0191C1.99703 23.1161 2.06155 23.2132 2.14223 23.3103C2.2229 23.3912 2.31971 23.4883 2.41652 23.5692C2.51333 23.6663 2.61014 23.7472 2.72309 23.8281C3.11033 24.1679 3.20714 24.2812 3.70733 24.5401C3.788 24.5886 3.86868 24.621 3.96549 24.6695C3.98165 24.6695 3.99774 24.6857 4.0139 24.6857C4.0139 24.7181 4.0139 24.7343 4.03006 24.7666C4.04622 24.8961 4.07846 25.0255 4.11073 25.155C4.14298 25.3006 4.19141 25.4301 4.23982 25.5433C4.28822 25.6404 4.32049 25.7375 4.3689 25.8346C4.38506 25.8669 4.40114 25.8993 4.4173 25.9155C4.48187 26.0449 4.54638 26.1582 4.61092 26.2715C4.6916 26.3847 4.77227 26.498 4.85294 26.6113C4.93362 26.7083 5.03043 26.8216 5.12724 26.9187C5.22405 27.0158 5.32086 27.0967 5.43381 27.1938C5.43381 27.1938 5.44997 27.21 5.46605 27.21C5.56286 27.2909 5.65968 27.3718 5.75649 27.4365C5.86943 27.5174 5.98238 27.5822 6.11145 27.6469C6.2244 27.7116 6.35348 27.7763 6.48256 27.8249C6.57937 27.8734 6.69231 27.9058 6.80526 27.9381C6.82142 27.9544 6.83751 27.9544 6.86983 27.9705C6.93439 27.9867 7.01504 28.0028 7.07958 28.019C7.03117 28.8928 7.01501 29.718 7.14415 30.0093C7.28935 30.3329 7.9993 29.3459 8.70924 28.2132C8.61243 29.3297 8.54789 30.6403 8.70924 31.0287C8.88673 31.4332 9.85483 30.1711 10.6939 28.7795C22.1336 26.1259 32.573 34.0545 33.6701 45.2517C33.4604 43.5042 31.3144 42.5333 30.3302 42.7761C29.8461 43.9735 29.0233 45.5106 27.7002 46.4653C27.8131 45.3974 27.7647 44.2971 27.5388 43.2291C27.1839 44.7178 26.4901 46.1093 25.5381 47.3067C24.0053 47.42 22.4724 46.6757 21.6657 45.5592C21.6011 45.5106 21.585 45.4136 21.5366 45.3488C21.4882 45.2356 21.4398 45.1223 21.4075 45.009C21.3591 44.8958 21.3268 44.7825 21.3107 44.6692C21.2945 44.556 21.2945 44.4427 21.2945 44.3133C21.2945 44.2323 21.2945 44.1514 21.2945 44.0705C21.3107 43.9573 21.3429 43.844 21.3752 43.7307C21.4075 43.6175 21.4398 43.5042 21.4882 43.3909C21.5527 43.2777 21.6011 43.1644 21.6818 43.0511C21.9561 42.2744 21.9561 41.6434 21.4559 41.2712C21.3591 41.2065 21.2623 41.158 21.1493 41.1094C21.0848 41.0932 21.0041 41.0609 20.9396 41.0447C20.8912 41.0285 20.8589 41.0123 20.8105 40.9961C20.6975 40.9638 20.5846 40.9314 20.4717 40.9152C20.3587 40.8829 20.2458 40.8667 20.1328 40.8667C20.0199 40.8505 19.8908 40.8343 19.7778 40.8343C19.6972 40.8343 19.6165 40.8505 19.5358 40.8505C19.4067 40.8505 19.2938 40.8668 19.1808 40.8991C19.0679 40.9153 18.955 40.9314 18.842 40.9638C18.7291 40.9962 18.6161 41.0286 18.5032 41.0771C18.3902 41.1256 18.2934 41.1742 18.1805 41.2227C18.0837 41.2713 17.9869 41.336 17.8739 41.3845C14.1144 43.844 16.3572 49.6045 18.9227 51.2711C17.9546 51.4491 16.9704 51.6595 16.6961 51.8698C16.6799 51.886 16.6638 51.9021 16.6638 51.9021C17.3576 52.3228 18.0837 52.6788 18.842 52.9863C19.8747 53.3261 20.9719 53.6335 21.4559 53.763V53.7792C22.7951 54.0542 24.1505 54.1513 25.5219 54.0704C32.6698 53.5688 38.5268 48.1158 39.5917 40.9315C39.6239 41.0771 39.6563 41.2065 39.6885 41.3522C39.7369 41.6434 39.8014 41.9509 39.8337 42.2583V42.2745C39.866 42.4202 39.8821 42.5658 39.8983 42.6952V42.76C39.9145 42.9056 39.9305 43.0512 39.9305 43.1807C39.9467 43.3587 39.9628 43.5367 39.9628 43.7147V43.9736C39.9628 44.0545 39.9789 44.1515 39.9789 44.2325C39.9789 44.3295 39.9628 44.4266 39.9628 44.5237V44.7502C39.9628 44.8635 39.9466 44.9606 39.9466 45.0739C39.9466 45.1386 39.9466 45.2033 39.9304 45.2842C39.9304 45.3975 39.9143 45.5107 39.9143 45.6402C39.8981 45.6887 39.8981 45.7373 39.8981 45.7858C39.882 45.9153 39.8659 46.0285 39.8497 46.158C39.8497 46.2065 39.8497 46.2551 39.8335 46.3036C39.8174 46.4654 39.7851 46.6111 39.769 46.7729V46.7891V46.8053C39.7367 46.9509 39.7044 47.1127 39.6722 47.2584V47.3069C39.6399 47.4525 39.6076 47.5982 39.5754 47.7438C39.5754 47.76 39.5592 47.7923 39.5592 47.8085C39.527 47.9542 39.4946 48.0998 39.4463 48.2454V48.294C39.3979 48.4558 39.3495 48.6014 39.3172 48.747C39.301 48.7632 39.301 48.7794 39.301 48.7794C39.2526 48.9412 39.2042 49.103 39.1558 49.2648C39.0912 49.4266 39.0429 49.5722 38.9783 49.734C38.9138 49.8959 38.8654 50.0577 38.8008 50.2033C38.7363 50.3651 38.6718 50.5107 38.6072 50.6725H38.591C38.5265 50.8182 38.462 50.98 38.3813 51.1256C38.3651 51.1742 38.349 51.2065 38.3329 51.2389C38.3167 51.2551 38.3167 51.2712 38.3006 51.2874C37.2519 53.4071 35.7029 55.2679 33.7667 56.7242C33.6376 56.8051 33.5085 56.9022 33.3794 56.9993C33.3472 57.0316 33.2988 57.0478 33.2665 57.0802C33.1536 57.1611 33.0406 57.242 32.9115 57.3229L32.9599 57.42H32.9761C33.202 57.3877 33.4279 57.3553 33.6538 57.3229H33.6699C34.0894 57.2582 34.5089 57.1773 34.9285 57.0964C35.0414 57.0802 35.1705 57.0478 35.2834 57.0155C35.3641 56.9992 35.4286 56.9831 35.5093 56.9669C35.6223 56.9507 35.7352 56.9184 35.8482 56.9022C35.945 56.8699 36.0418 56.8536 36.1386 56.8213C37.7521 56.4329 39.3172 55.899 40.8177 55.2679C38.2523 58.7792 34.8155 61.6108 30.7979 63.4717C32.6534 63.3422 34.5089 63.0348 36.2999 62.517C42.8024 60.5914 48.2721 56.2064 51.5475 50.3003C50.886 54.0382 49.4016 57.598 47.2072 60.7047C48.7723 59.6691 50.2083 58.4717 51.5153 57.1125C55.1295 53.3262 57.5014 48.5205 58.3081 43.3587C58.8567 45.9153 59.0181 48.5528 58.776 51.1579C70.4255 34.8637 59.7441 17.9708 55.2747 13.521C55.2586 13.4887 55.2425 13.4725 55.2425 13.4401C55.2263 13.4563 55.2263 13.4563 55.2263 13.4724C55.2263 13.4562 55.2263 13.4562 55.2102 13.4401C55.2102 13.6343 55.194 13.8284 55.1779 14.0226C55.1295 14.3948 55.0811 14.7508 55.0166 15.1067C54.9359 15.4627 54.8391 15.8187 54.7423 16.1747C54.6293 16.5145 54.5002 16.8705 54.355 17.2103C54.2098 17.5339 54.0485 17.8737 53.871 18.1973C53.6935 18.5048 53.4999 18.8284 53.2901 19.1196C53.0804 19.4271 52.8545 19.7183 52.6286 19.9934C52.3865 20.2847 52.1284 20.5436 51.8702 20.8024C51.7089 20.9481 51.5637 21.0775 51.4023 21.207C51.2732 21.3202 51.1603 21.4173 51.0312 21.5306C50.7408 21.7571 50.4503 21.9675 50.1276 22.1616C49.8211 22.3558 49.4984 22.55 49.1757 22.7118C48.8368 22.8736 48.498 23.0192 48.1592 23.1649C47.8203 23.2943 47.4654 23.4076 47.1104 23.5047C46.7554 23.6017 46.3843 23.6827 46.0293 23.7474C45.6582 23.8121 45.2871 23.8445 44.9322 23.8768C44.674 23.893 44.4158 23.9092 44.1577 23.9092C43.7866 23.9092 43.4155 23.8768 43.0605 23.8444C42.6894 23.8121 42.3183 23.7635 41.9633 23.6826C41.5922 23.6179 41.2372 23.5208 40.8823 23.4075H40.8661C41.2211 23.3752 41.576 23.3428 41.931 23.2781C42.3021 23.2133 42.6571 23.1325 43.0121 23.0354C43.367 22.9383 43.722 22.825 44.0608 22.6956C44.4158 22.5661 44.7547 22.4043 45.0774 22.2425C45.4162 22.0807 45.7228 21.9027 46.0455 21.7085C46.352 21.4982 46.6586 21.2878 46.949 21.0613C47.2394 20.8348 47.5137 20.592 47.7719 20.3331C48.0462 20.0904 48.2882 19.8154 48.5303 19.5403C48.7723 19.249 48.9982 18.9578 49.2079 18.6665C49.2402 18.618 49.2725 18.5532 49.3047 18.5047C49.4661 18.2458 49.6274 17.9869 49.7726 17.728C49.9501 17.4044 50.1115 17.0808 50.2567 16.741C50.4019 16.4012 50.531 16.0614 50.6439 15.7054C50.7569 15.3656 50.8376 15.0096 50.9182 14.6536C50.9828 14.2815 51.0473 13.9255 51.0796 13.5695C51.1118 13.1973 51.1441 12.8252 51.1441 12.4692C51.1441 12.2103 51.128 11.9514 51.1119 11.6925C51.0797 11.3203 51.0312 10.9644 50.9828 10.6084C50.9183 10.2362 50.8376 9.88024 50.7408 9.52426C50.6279 9.18446 50.5149 8.82848 50.3858 8.48868C50.2567 8.14888 50.0954 7.80908 49.934 7.48545C49.7566 7.16184 49.5791 6.83822 49.3855 6.53078C49.1757 6.22335 48.9659 5.93209 48.7401 5.64083C48.498 5.36575 48.256 5.09067 47.9978 4.8156C47.8688 4.68615 47.7235 4.54052 47.5783 4.41108C46.8523 3.84474 46.0939 3.31077 45.3356 2.82534C45.2226 2.76059 45.1258 2.71207 45.0129 2.66353C44.4804 2.32373 43.9802 2.14564 43.48 1.98384Z" fill="#E0234E"/>
</svg>
