<svg width="71" height="64" viewBox="0 0 71 64" fill="none" xmlns="http://www.w3.org/2000/svg">
<g clip-path="url(#clip0_8_481)">
<path d="M35.6569 38.7725C39.3293 38.7725 42.3063 35.7404 42.3063 32C42.3063 28.2597 39.3293 25.2275 35.6569 25.2275C31.9846 25.2275 29.0076 28.2597 29.0076 32C29.0076 35.7404 31.9846 38.7725 35.6569 38.7725Z" fill="#087EA4"/>
<path d="M35.6569 47.2379C54.0186 47.2379 68.9037 40.4156 68.9037 31.9998C68.9037 23.584 54.0186 16.7617 35.6569 16.7617C17.2952 16.7617 2.41016 23.584 2.41016 31.9998C2.41016 40.4156 17.2952 47.2379 35.6569 47.2379Z" stroke="#087EA4" stroke-width="3"/>
<path d="M22.7003 39.619C31.8811 55.8152 45.1245 65.5336 52.2803 61.3257C59.436 57.1178 57.7944 40.5771 48.6135 24.3809C39.4327 8.18475 26.1893 -1.53366 19.0335 2.67422C11.8778 6.88211 13.5194 23.4228 22.7003 39.619Z" stroke="#087EA4" stroke-width="3"/>
<path d="M22.7003 24.3811C13.5194 40.5772 11.8778 57.118 19.0335 61.3259C26.1893 65.5337 39.4327 55.8153 48.6136 39.6192C57.7944 23.423 59.4361 6.88229 52.2803 2.67441C45.1245 -1.53348 31.8811 8.18494 22.7003 24.3811Z" stroke="#087EA4" stroke-width="3"/>
</g>
<defs>
<clipPath id="clip0_8_481">
<rect width="69.8182" height="64" fill="white" transform="translate(0.747803)"/>
</clipPath>
</defs>
</svg>
